<svg xmlns:xlink="http://www.w3.org/1999/xlink" xmlns:dc="http://purl.org/dc/elements/1.1/" xmlns:cc="http://creativecommons.org/ns#" xmlns:rdf="http://www.w3.org/1999/02/22-rdf-syntax-ns#" xmlns:svg="http://www.w3.org/2000/svg" xmlns="http://www.w3.org/2000/svg" width="100%" height="100%" viewBox="0 0 37.5 37.5" version="1.1" id="svg4136">
  <metadata id="metadata4142">
    <rdf:RDF>
      <cc:Work rdf:about="">
        <dc:format>image/svg+xml</dc:format>
        <dc:type rdf:resource="http://purl.org/dc/dcmitype/StillImage"/>
        <dc:title/>
      </cc:Work>
    </rdf:RDF>
  </metadata>
  <defs id="defs4140"/>
  <path id="path4146" d="m 10.959482,2.0176159 -0.1875,0.296875 c 0,0 -0.268176,0.4350796 -0.660156,1.1542969 C 9.7711843,4.0057109 9.5311153,4.6469658 9.1801852,5.1387096 9.1674694,5.2056617 9.177984,5.25396 9.1782321,5.3105846 9.1476452,5.375051 9.1213455,5.422058 9.0903414,5.488319 8.3396501,5.4689705 8.4188217,5.4653239 7.7485445,5.4453503 6.3742736,5.3255247 4.9687858,5.3431807 3.6001071,5.2988659 3.487446,5.2740251 3.3893929,5.2812759 3.2993258,5.3027722 3.1842464,5.298314 2.3344821,5.2715222 2.3344821,5.2715222 L 1.6547945,5.238319 2.1508883,5.7031628 c 1.561066,1.4657335 3.3931763,2.649014 5.3535156,3.6152344 -0.00417,0.00385 -0.00749,0.00794 -0.011719,0.011719 C 5.6462337,14.566867 4.9034776,20.391429 6.0942477,25.843787 c 0.00419,0.01955 0.00748,0.03904 0.011719,0.05859 0.1145749,0.518323 0.2440902,1.034247 0.3945313,1.544922 0.081304,0.282642 0.1804301,0.564825 0.2734375,0.847656 0.046031,0.136081 0.087965,0.27282 0.1367187,0.408203 0.5021668,1.437571 1.1601409,2.872575 2.0039063,4.291016 0.08545,0.14421 0.1754423,0.284833 0.265625,0.425781 0.1813428,0.291135 0.3493771,0.583754 0.546875,0.873047 l 0.1464843,0.214844 0.2089845,-0.154297 c 0.102696,-0.07567 0.127056,-0.09637 0.226562,-0.169922 0.525022,-0.194308 0.954764,-0.797135 1.447266,-1.048828 0.391425,-0.371748 0.897144,-0.662169 1.30664,-1.027344 0.265058,-0.202718 0.763169,-0.570881 0.972657,-0.732422 l 1.300781,0.02149 c 0.763809,0.179114 1.643028,0.02363 2.40625,0.117187 2.142795,-0.04899 4.233095,0.153383 6.355469,0.207032 0.738762,0.04369 0.840049,0.05069 1.607422,0.0957 0.08967,0.153384 0.181156,0.295764 0.271484,0.447265 0.04802,0.157434 0.132052,0.308183 0.251953,0.419922 0.05996,0.08475 0.111796,0.181788 0.167969,0.271484 0.113536,0.183537 0.226467,0.368216 0.339844,0.544922 0.07685,0.126492 0.162041,0.243344 0.246093,0.363282 0.210437,0.317889 0.421255,0.645282 0.626953,0.925781 l 0.189454,0.257812 0.203124,-0.246093 c 0.565534,-0.678641 1.062183,-1.366136 1.527344,-2.056641 0.01468,-0.02338 0.02923,-0.04028 0.04297,-0.06445 0.138666,-0.207253 0.289781,-0.4131 0.419922,-0.621094 0.107186,0.0059 0.20508,0.01153 0.314453,0.01758 0.03743,0.0064 0.06837,0.0187 0.111328,0.01953 1.299007,0.04554 2.626851,0.242233 3.921875,0.185546 0.05571,0.0023 0.15124,0.0078 0.203125,0.0098 0.237703,0.0091 0.433927,0.01667 0.583984,0.01953 0.150059,0.0029 0.241467,0.004 0.320313,-0.0039 l 0.455078,-0.04492 -0.283203,-0.359375 c 0,0 -0.454273,-0.522227 -1.34375,-1.259766 -0.04509,-0.04254 -0.107675,-0.08773 -0.142578,-0.128906 -0.707852,-0.520597 -1.421767,-1.247942 -2.263672,-1.560547 -0.07073,-0.04218 -0.130157,-0.08254 -0.203125,-0.125 0.07767,-0.183124 0.146652,-0.367608 0.21875,-0.550781 0,0 0,-0.002 0,-0.002 0.283273,-0.72002 0.50891,-1.438474 0.710937,-2.15625 0.06314,-0.221052 0.119598,-0.443627 0.175782,-0.666016 0.100295,-0.40243 0.194167,-0.803043 0.271484,-1.203125 0.07526,-0.384199 0.143321,-0.769334 0.199219,-1.15625 0.0343,-0.241369 0.06314,-0.480755 0.08984,-0.720703 0.04651,-0.408757 0.08136,-0.817938 0.107421,-1.228515 0.0087,-0.142332 0.0231,-0.286088 0.0293,-0.427735 0.02714,-0.58408 0.03166,-1.168543 0.01953,-1.753906 -0.0014,-0.06017 -0.004,-0.11969 -0.0059,-0.179687 -0.11481,-4.188208 -1.200144,-8.375522 -2.929687,-12.1621095 -0.02265,-0.040104 -0.0547,-0.083895 -0.07813,-0.1269531 -0.981141,-2.16448 -1.826172,-3.484375 -1.826172,-3.484375 l -0.453125,0.1875 c 0.142391,0.6830645 0.268849,1.3409894 0.384766,1.9824219 -0.04804,0.00422 -0.104034,0.00562 -0.152344,0.00977 -0.03402,-0.00102 -0.06778,-0.00637 -0.101563,-0.00391 -4.851407,0.3817323 -9.711189,0.2695252 -14.578125,0.3691407 -0.01779,0.00731 -0.02456,0.017682 -0.04102,0.025391 -0.07191,-7.66e-4 -0.149071,8.166e-4 -0.220703,0 C 13.408316,5.4573054 13.322586,5.335902 13.242685,5.2129284 13.148184,4.8480856 12.841028,4.5177411 12.56495,4.1953503 12.114502,3.5378971 11.653201,2.892372 11.178232,2.2930065 l -0.21875,-0.2753906 z m 5.183594,10.1855461 c 0.0072,0.0013 0.01432,0.0027 0.02148,0.0039 0.0047,-7.79e-4 0.0071,-0.0031 0.01172,-0.0039 0.371863,0.07918 0.739212,0.148899 1.107421,0.220703 0.827185,0.294168 1.795328,0.255574 2.638672,0.462891 2.53731,0.390381 5.116621,0.579355 7.681641,0.582031 0.768148,0.01159 1.421601,0.01061 1.833984,0.002 4.63e-4,0.07881 -0.0038,0.146848 -0.0039,0.224609 -0.203216,0.762642 -0.04796,1.663758 -0.214844,2.414062 -0.318289,2.883811 -0.948559,6.230376 -3.460937,8.0625 -0.4662,0.425386 -1.180711,0.544581 -1.703125,0.875 -0.812703,0.236446 -1.392578,0.197266 -1.392578,0.197266 l -0.429688,-0.03125 0.05469,0.115234 c -0.01747,-0.0039 -0.03718,-0.0078 -0.05469,-0.01172 -1.106397,-0.331961 -2.319182,-0.423686 -3.457031,-0.63086 -0.112487,-0.01428 -0.225359,-0.02848 -0.337891,-0.04297 -0.488219,-0.06858 -0.99084,-0.129882 -1.503906,-0.1875 -1.374134,-0.172313 -2.751495,-0.328679 -4.134765,-0.359374 -0.103315,-0.0105 -0.192734,-0.0028 -0.271485,0.01758 -0.0357,-0.0015 -0.06772,-0.0045 -0.103515,-0.0059 -0.02284,-0.09073 -0.03365,-0.174103 -0.05469,-0.263672 0.01152,-0.406631 -0.122087,-0.882842 -0.173828,-1.21875 -0.264106,-2.419384 -0.205042,-5.049977 1.11914,-7.183593 0.597507,-1.146526 1.42209,-2.086045 2.384766,-2.898438 0.154485,-0.120934 0.316088,-0.251915 0.44336,-0.339844 z m 7.435546,13.433594 c 7.4e-5,0.0013 -8e-5,0.0026 0,0.0039 -0.0033,-8.63e-4 -0.0064,-0.0011 -0.0098,-0.002 0.0027,-3.23e-4 0.007,-0.0016 0.0098,-0.002 z" style="color:#000000;font-style:normal;font-variant:normal;font-weight:normal;font-stretch:normal;font-size:medium;line-height:normal;font-family:sans-serif;text-indent:0;text-align:start;text-decoration:none;text-decoration-line:none;text-decoration-style:solid;text-decoration-color:#000000;letter-spacing:normal;word-spacing:normal;text-transform:none;direction:ltr;block-progression:tb;writing-mode:lr-tb;baseline-shift:baseline;text-anchor:start;white-space:normal;clip-rule:nonzero;display:inline;overflow:visible;visibility:visible;opacity:1;isolation:auto;mix-blend-mode:normal;color-interpolation:sRGB;color-interpolation-filters:linearRGB;solid-color:#000000;solid-opacity:1;fill:#000000;fill-opacity:1;fill-rule:evenodd;stroke:none;stroke-width:0.5;stroke-linecap:butt;stroke-linejoin:miter;stroke-miterlimit:4;stroke-dasharray:none;stroke-dashoffset:0;stroke-opacity:1;color-rendering:auto;image-rendering:auto;shape-rendering:auto;text-rendering:auto;enable-background:accumulate"/>
</svg>